# xmcd
#
# Track frame offsets:
#	150
#	16367
#	32531
#	46651
#	63285
#	79924
#	99744
#	114286
#	129670
#	145687
#	162047
#	178668
#	194552
#	211331
#	223953
#	243301
#	261399
#	277208
#
# Disc length: 3931 seconds
#
# Revision: 1
# Processed by: cddbd v1.5.2PL0 Copyright (c) Steve Scherf et al.
# Submitted via: audiograbber 1.83.01
#
DISCID=090f5912
DTITLE=Bruno e Marrone - Duetos
DYEAR=1900
DGENRE=
TTITLE0=Doce Desejo - Claudia Leite
TTITLE1=Imprevisivel - Edson e Hudson
TTITLE2=Amor de ping pong - Edson e Hudson
TTITLE3=Que pena - Felipe e Falcao
TTITLE4=Rancho do vale - Tiao Carreiro e Pardinho
TTITLE5=Sertanejo de coracao - Daniel
TTITLE6=Cabecinha no ombro - Milionario e Jose Rico
TTITLE7=Abafa o caso - Alexandre Pires
TTITLE8=Meu segredo - Luis Claudio e Giuliano
TTITLE9=Voce foi atriz - Eduardo Costa
TTITLE10=Porque choras? - Banda Calypso
TTITLE11=Preciso parar de chorar - Latino
TTITLE12=Metade da metade - Ana Paula
TTITLE13=Desiguais - Ana Paula
TTITLE14=Uma noite - Ana Paula
TTITLE15=Cigarro apagado - Katinguele
TTITLE16=Ta pegando - Grupo Tradicao
TTITLE17=Nossa Senhora do Brasil - Padre Marcelo Rossi
EXTD=
EXTT0=
EXTT1=
EXTT2=
EXTT3=
EXTT4=
EXTT5=
EXTT6=
EXTT7=
EXTT8=
EXTT9=
EXTT10=
EXTT11=
EXTT12=
EXTT13=
EXTT14=
EXTT15=
EXTT16=
EXTT17=
PLAYORDER=
